<svg xmlns="http://www.w3.org/2000/svg" width="79" height="83" viewBox="0 0 79 83">
    <g fill="none" fill-rule="evenodd">
        <g>
            <g>
                <path fill="#300771" d="M17.18 11.791c-.377 0-.7.063-.937.11-.97.191-1.656.686-2.119 1.034-.116-.01-.232-.016-.349-.016-1.024 0-1.83.385-2.364.64l-.005.002-.166-.105-.743-.005c-.969 0-1.879.547-2.317 1.393l-.12.241c-.509 1.014-.847 1.65-1.359 1.912l-1.689.867.383 1.862.003.007c-.074.16-.377.51-.58.745-.397.456-.867.997-1.23 1.693-.582.188-1.482.542-2.145 1.455L.285 25.218l1.276 1.498.047.056c.301.358 1.046 1.241 2.298 1.44.551 1.464 1.771 2.007 2.767 2.007.32 0 .606-.052.848-.118l1.795.795.312-1.009.072.031c.501.221 1.127.495 1.897.604.692.1 1.35.101 1.927.102.767.002 1.373.003 1.82.206l3.637 1.658-.095-3.716c.525.221 1.073.335 1.616.335 1.53 0 2.88-.879 3.615-2.354.956-1.924.74-4.003-.56-5.446-.004-.066-.005-.177.003-.367.013-.322.008-.64.001-.96-.007-.365-.015-.71.023-.933.218-1.27 0-2.364-.649-3.246-.638-.867-1.609-1.406-2.888-1.602-.257-1.434-1.388-2.408-2.867-2.408m0 2.5c.246 0 .416.104.421.491.014 1.36.895 1.728 1.992 1.878 1.17.157 1.745.695 1.526 1.97-.12.717-.028 1.472-.056 2.206-.033.78-.002 1.457.615 2.122.696.75.66 1.756.2 2.681-.317.636-.814.968-1.376.968-.322 0-.666-.109-1.009-.333-.35-.229-.597-.54-1.11-.543h-.023c-1.719 0-2.04.4-1.98 2.825-1.459-.665-2.973-.3-4.43-.508-.975-.139-1.82-.874-2.869-.874-.086 0-.173.005-.262.015-.02.002-.038.003-.058.003-.189 0-.404-.096-.593-.096-.169 0-.318.078-.41.376-.044-.02-.09-.029-.14-.029-.285 0-.645.276-.945.276-.236 0-.434-.17-.526-.784-.068-.447-.693-1.189-1.544-1.189-.038 0-.077.001-.116.004-.022.002-.042.003-.064.003-.435 0-.699-.353-.958-.657.556-.765 1.837-.454 2.18-1.409.566-1.579 2.621-2.416 2.2-4.466 1.34-.689 1.925-1.975 2.555-3.227.011-.022.064-.043.097-.043.008 0 .016.002.021.005.267.17.52.234.766.234.843 0 1.59-.77 2.491-.77.145 0 .295.02.45.065.08.025.158.036.236.036.738 0 1.373-.992 2.23-1.16.177-.035.345-.07.49-.07" transform="translate(-815 -4870) translate(815 4870.5)"/>
                <path fill="#300771" d="M37.552 11.791c-.377 0-.7.063-.937.11-.97.191-1.656.686-2.119 1.034-.116-.01-.232-.016-.349-.016-1.024 0-1.83.385-2.364.64l-.005.002-.166-.105-.743-.005c-.97 0-1.88.55-2.319 1.397l-.119.237c-.508 1.014-.846 1.65-1.358 1.912l-1.689.867.383 1.862.003.007c-.074.16-.377.51-.58.745-.397.456-.867.997-1.23 1.693-.582.188-1.482.542-2.145 1.455l-1.157 1.592 1.275 1.498.047.055c.301.36 1.046 1.242 2.298 1.441.551 1.464 1.771 2.007 2.767 2.007.32 0 .606-.052.848-.118l1.795.795.312-1.009.072.031c.502.221 1.127.495 1.897.604.693.1 1.35.101 1.927.102.767.002 1.374.003 1.82.206l3.637 1.658-.095-3.716c.526.221 1.073.335 1.616.335 1.53 0 2.88-.879 3.615-2.354.956-1.924.74-4.003-.56-5.446-.004-.066-.005-.176.004-.367.013-.322.007-.64.001-.96-.008-.366-.015-.71.023-.933.217-1.27-.002-2.364-.65-3.246-.637-.867-1.609-1.406-2.888-1.602-.257-1.433-1.388-2.408-2.867-2.408m0 2.5c.247 0 .417.104.421.491.014 1.36.895 1.728 1.992 1.878 1.17.157 1.745.695 1.527 1.97-.122.717-.028 1.472-.057 2.206-.033.78-.002 1.457.615 2.122.696.75.66 1.756.2 2.681-.317.636-.814.968-1.376.968-.322 0-.666-.109-1.009-.333-.35-.229-.597-.54-1.11-.543h-.023c-1.719 0-2.04.4-1.98 2.825-1.459-.665-2.973-.3-4.43-.508-.974-.139-1.82-.874-2.868-.874-.087 0-.174.005-.263.015-.019.002-.038.003-.058.003-.189 0-.403-.096-.592-.096-.17 0-.319.078-.41.376-.045-.02-.092-.029-.142-.029-.284 0-.644.276-.944.276-.236 0-.433-.17-.526-.784-.068-.447-.693-1.189-1.544-1.189-.038 0-.077.001-.115.004-.022.002-.043.003-.065.003-.435 0-.699-.353-.958-.657.556-.765 1.837-.454 2.18-1.409.566-1.579 2.621-2.416 2.2-4.466 1.34-.689 1.925-1.975 2.555-3.227.011-.022.064-.043.097-.043.008 0 .016.002.021.005.267.17.521.234.766.234.843 0 1.59-.77 2.491-.77.145 0 .295.02.45.065.08.025.16.036.236.036.738 0 1.373-.992 2.23-1.16.177-.035.345-.07.49-.07" transform="translate(-815 -4870) translate(815 4870.5)"/>
                <path fill="#300771" d="M57.925 11.791c-.378 0-.702.063-.938.11-.97.191-1.655.686-2.119 1.034-.116-.01-.232-.016-.349-.016-1.024 0-1.829.385-2.364.64l-.005.002-.166-.105-.743-.005c-.968 0-1.879.547-2.316 1.393l-.122.241c-.508 1.015-.846 1.65-1.357 1.912l-1.69.867.384 1.862.003.007c-.074.16-.377.51-.58.745-.397.456-.867.997-1.232 1.693-.58.188-1.48.542-2.144 1.455l-1.157 1.592 1.275 1.498.048.056c.301.358 1.045 1.241 2.297 1.44.551 1.464 1.771 2.007 2.767 2.007.32 0 .606-.052.848-.118l1.795.795.312-1.009.072.031c.502.221 1.127.495 1.897.604.693.1 1.35.101 1.927.102.767.002 1.374.003 1.82.206l3.637 1.658-.094-3.716c.525.221 1.072.335 1.615.335 1.53 0 2.88-.879 3.615-2.354.956-1.924.74-4.003-.56-5.446-.004-.066-.004-.176.004-.367.013-.322.008-.64.001-.96-.008-.365-.015-.71.023-.933.217-1.27 0-2.364-.65-3.246-.637-.867-1.608-1.406-2.888-1.602-.257-1.434-1.387-2.408-2.866-2.408m0 2.5c.246 0 .416.104.42.491.014 1.36.895 1.728 1.992 1.878 1.17.157 1.745.695 1.527 1.97-.122.717-.028 1.472-.057 2.206-.033.78-.002 1.457.615 2.122.696.75.66 1.756.201 2.681-.317.636-.814.968-1.377.968-.322 0-.666-.109-1.008-.333-.352-.229-.598-.54-1.11-.543h-.024c-1.719 0-2.04.4-1.98 2.825-1.459-.665-2.973-.3-4.43-.508-.974-.139-1.82-.874-2.868-.874-.087 0-.174.005-.263.015l-.057.003c-.19 0-.404-.096-.593-.096-.17 0-.319.078-.41.376-.045-.02-.092-.029-.14-.029-.286 0-.646.276-.946.276-.236 0-.433-.17-.526-.784-.067-.447-.693-1.189-1.544-1.189-.038 0-.076.001-.115.004l-.064.003c-.436 0-.7-.353-.959-.657.556-.765 1.837-.454 2.18-1.409.566-1.579 2.622-2.416 2.2-4.466 1.34-.689 1.925-1.975 2.556-3.227.01-.022.063-.043.096-.043.01 0 .016.002.021.005.267.17.521.234.767.234.842 0 1.588-.77 2.49-.77.145 0 .295.02.45.065.08.025.16.036.237.036.737 0 1.372-.992 2.228-1.16.178-.035.347-.07.491-.07M17.18 28.069c-.377 0-.7.063-.937.11-.97.19-1.656.686-2.119 1.034-.116-.011-.232-.016-.349-.016-1.024 0-1.83.385-2.364.639l-.005.003-.166-.105-.743-.005c-.969 0-1.879.547-2.317 1.393l-.12.24c-.509 1.015-.847 1.65-1.359 1.913l-1.689.867.383 1.862.003.007c-.074.16-.377.509-.58.745-.397.456-.867.997-1.23 1.693-.582.188-1.482.542-2.145 1.455L.285 41.496l1.276 1.498.047.056c.301.358 1.046 1.24 2.298 1.44.551 1.464 1.771 2.007 2.767 2.007.32 0 .606-.052.848-.118l1.795.795.312-1.01c.025.01.048.022.072.032.501.22 1.127.495 1.897.604.692.099 1.35.1 1.927.102.767.002 1.373.003 1.82.206l3.637 1.658-.095-3.716c.525.22 1.073.335 1.616.335 1.53 0 2.88-.88 3.615-2.354.956-1.924.74-4.003-.56-5.446-.004-.066-.005-.176.003-.367.013-.322.008-.641.001-.961-.007-.364-.015-.708.023-.932.218-1.271 0-2.363-.649-3.246-.638-.867-1.609-1.406-2.888-1.601-.257-1.434-1.388-2.41-2.867-2.41m0 2.5c.246 0 .416.105.421.493.014 1.359.895 1.727 1.992 1.877 1.17.157 1.745.695 1.526 1.969-.12.718-.028 1.473-.056 2.207-.033.78-.002 1.457.615 2.122.696.75.66 1.756.2 2.68-.317.637-.814.969-1.376.969-.322 0-.666-.11-1.009-.333-.35-.23-.597-.541-1.11-.543h-.023c-1.719 0-2.04.4-1.98 2.825-1.459-.665-2.973-.3-4.43-.508-.975-.14-1.82-.874-2.869-.874-.086 0-.173.005-.262.015-.02.002-.038.003-.058.003-.189 0-.404-.096-.593-.096-.169 0-.318.078-.41.376-.044-.02-.09-.03-.14-.03-.285 0-.645.277-.945.277-.236 0-.434-.171-.526-.783-.068-.448-.693-1.19-1.544-1.19-.038 0-.077 0-.116.004-.022.002-.042.003-.064.003-.435 0-.699-.353-.958-.657.556-.765 1.837-.454 2.18-1.41.566-1.577 2.621-2.415 2.2-4.465 1.34-.688 1.925-1.975 2.555-3.227.011-.021.064-.043.097-.043.008 0 .016.002.021.005.267.169.52.234.766.234.843 0 1.59-.771 2.491-.771.145 0 .295.02.45.066.08.025.158.036.236.036.738 0 1.373-.992 2.23-1.16.177-.035.345-.07.49-.07" transform="translate(-815 -4870) translate(815 4870.5)"/>
                <path fill="#300771" d="M37.552 28.069c-.377 0-.7.063-.937.11-.97.19-1.656.686-2.119 1.034-.116-.011-.232-.016-.349-.016-1.024 0-1.83.385-2.364.639l-.005.003-.166-.105-.743-.005c-.97 0-1.88.549-2.319 1.397l-.119.237c-.508 1.014-.846 1.649-1.358 1.912l-1.689.867.383 1.862.003.007c-.074.16-.377.509-.58.745-.397.456-.867.998-1.23 1.693-.582.188-1.482.542-2.145 1.455l-1.157 1.592 1.275 1.498.047.055c.301.359 1.046 1.242 2.298 1.44.551 1.465 1.771 2.008 2.767 2.008.32 0 .606-.052.848-.118l1.795.795.312-1.01c.025.01.05.022.072.032.502.22 1.127.495 1.897.604.693.099 1.35.1 1.927.102.767.002 1.374.003 1.82.206l3.637 1.658-.095-3.716c.526.22 1.073.335 1.616.335 1.53 0 2.88-.88 3.615-2.354.956-1.924.74-4.003-.56-5.446-.004-.066-.005-.176.004-.367.013-.322.007-.641.001-.961-.008-.364-.015-.71.023-.932.217-1.271-.002-2.363-.65-3.246-.637-.867-1.609-1.406-2.888-1.601-.257-1.434-1.388-2.41-2.867-2.41m0 2.5c.247 0 .417.105.421.493.014 1.359.895 1.727 1.992 1.877 1.17.157 1.745.695 1.527 1.969-.122.718-.028 1.473-.057 2.207-.033.78-.002 1.457.615 2.122.696.75.66 1.756.2 2.68-.317.637-.814.969-1.376.969-.322 0-.666-.11-1.009-.333-.35-.23-.597-.541-1.11-.543h-.023c-1.719 0-2.04.4-1.98 2.825-1.459-.665-2.973-.3-4.43-.508-.974-.14-1.82-.874-2.868-.874-.087 0-.174.005-.263.015-.019.002-.038.003-.058.003-.189 0-.403-.096-.592-.096-.17 0-.319.078-.41.376-.045-.02-.092-.03-.142-.03-.284 0-.644.277-.944.277-.236 0-.433-.171-.526-.783-.068-.448-.693-1.19-1.544-1.19-.038 0-.077 0-.115.004-.022.002-.043.003-.065.003-.435 0-.699-.353-.958-.657.556-.765 1.837-.454 2.18-1.41.566-1.577 2.621-2.415 2.2-4.465 1.34-.688 1.925-1.975 2.555-3.227.011-.021.064-.043.097-.043.008 0 .016.002.021.005.267.169.521.234.766.234.843 0 1.59-.771 2.491-.771.145 0 .295.02.45.066.08.025.16.036.236.036.738 0 1.373-.992 2.23-1.16.177-.035.345-.07.49-.07" transform="translate(-815 -4870) translate(815 4870.5)"/>
                <path fill="#300771" d="M57.925 28.069c-.378 0-.702.063-.938.11-.97.19-1.655.686-2.119 1.034-.116-.011-.232-.016-.349-.016-1.024 0-1.829.385-2.364.639l-.005.003-.166-.105-.743-.005c-.968 0-1.879.547-2.316 1.393l-.122.24c-.508 1.016-.846 1.65-1.357 1.913l-1.69.867.384 1.862.003.007c-.074.16-.377.509-.58.745-.397.456-.867.997-1.232 1.694-.58.187-1.48.54-2.144 1.454l-1.157 1.592 1.275 1.498.048.056c.301.358 1.045 1.24 2.297 1.44.551 1.464 1.771 2.007 2.767 2.007.32 0 .606-.052.848-.118l1.795.795.312-1.01c.025.01.05.022.072.032.502.22 1.127.495 1.897.604.693.099 1.35.1 1.927.102.767.002 1.374.003 1.82.206l3.637 1.658-.094-3.716c.525.22 1.072.335 1.615.335 1.53 0 2.88-.88 3.615-2.354.956-1.924.74-4.003-.56-5.446-.004-.066-.004-.176.004-.367.013-.322.008-.641.001-.961-.008-.364-.015-.708.023-.932.217-1.271 0-2.364-.65-3.246-.637-.867-1.608-1.406-2.888-1.601-.257-1.434-1.387-2.41-2.866-2.41m0 2.5c.246 0 .416.105.42.493.014 1.359.895 1.727 1.992 1.877 1.17.157 1.745.695 1.527 1.969-.122.718-.028 1.473-.057 2.207-.033.78-.002 1.457.615 2.122.696.75.66 1.756.201 2.68-.317.637-.814.969-1.377.969-.322 0-.666-.11-1.008-.333-.352-.23-.598-.541-1.11-.543h-.024c-1.719 0-2.04.4-1.98 2.825-1.459-.665-2.973-.3-4.43-.508-.974-.14-1.82-.874-2.868-.874-.087 0-.174.005-.263.015l-.057.003c-.19 0-.404-.096-.593-.096-.17 0-.319.078-.41.376-.045-.02-.092-.03-.14-.03-.286 0-.646.277-.946.277-.236 0-.433-.171-.526-.783-.067-.448-.693-1.19-1.544-1.19-.038 0-.076 0-.115.004l-.064.003c-.436 0-.7-.353-.959-.657.556-.765 1.837-.454 2.18-1.41.566-1.577 2.622-2.415 2.2-4.465 1.34-.688 1.925-1.975 2.556-3.227.01-.021.063-.043.096-.043.01 0 .016.002.021.005.267.169.521.234.767.234.842 0 1.588-.771 2.49-.771.145 0 .295.02.45.066.08.025.16.036.237.036.737 0 1.372-.992 2.228-1.16.178-.035.347-.07.491-.07M17.18 43.922c-.377 0-.7.063-.937.11-.97.191-1.656.686-2.119 1.034-.116-.01-.232-.016-.349-.016-1.024 0-1.83.385-2.364.64l-.005.002-.166-.105-.743-.005c-.969 0-1.879.547-2.317 1.393l-.12.241c-.509 1.014-.847 1.65-1.359 1.912l-1.689.867.383 1.862.003.007c-.074.16-.377.51-.58.745-.397.456-.867.997-1.23 1.693-.582.188-1.482.542-2.145 1.455L.285 57.35l1.276 1.498.047.056c.301.358 1.046 1.241 2.298 1.44.551 1.464 1.771 2.007 2.767 2.007.32 0 .606-.052.848-.118l1.795.794.312-1.008.072.031c.501.221 1.127.495 1.897.604.692.1 1.35.101 1.927.102.767.002 1.373.003 1.82.206l3.637 1.658-.095-3.716c.525.221 1.073.335 1.616.335 1.53 0 2.88-.879 3.615-2.354.97-1.953.76-3.983-.56-5.446-.004-.066-.005-.177.003-.367.013-.322.008-.64.001-.96-.007-.365-.015-.71.023-.933.218-1.27 0-2.364-.649-3.246-.638-.867-1.609-1.406-2.888-1.602-.257-1.434-1.388-2.408-2.867-2.408m0 2.5c.246 0 .416.104.421.491.014 1.36.895 1.728 1.992 1.878 1.17.157 1.745.695 1.526 1.97-.12.717-.028 1.472-.056 2.206-.033.78-.002 1.457.615 2.121.696.751.66 1.757.2 2.682-.317.636-.814.968-1.376.968-.322 0-.666-.109-1.009-.333-.35-.229-.597-.54-1.11-.543h-.023c-1.719 0-2.04.4-1.98 2.825-1.459-.665-2.973-.3-4.43-.508-.975-.139-1.822-.875-2.869-.875-.086 0-.173.006-.262.016-.02.002-.038.003-.058.003-.189 0-.404-.096-.593-.096-.169 0-.318.078-.41.376-.044-.02-.09-.029-.14-.029-.285 0-.645.276-.945.276-.236 0-.434-.17-.526-.784-.068-.447-.693-1.189-1.544-1.189-.038 0-.077.001-.116.004-.022.002-.042.003-.064.003-.435 0-.699-.353-.958-.657.556-.765 1.837-.454 2.18-1.409.566-1.579 2.621-2.416 2.2-4.466 1.34-.689 1.925-1.975 2.555-3.227.011-.022.064-.043.097-.043.008 0 .016.002.021.005.267.17.521.234.766.234.843 0 1.59-.77 2.491-.77.145 0 .295.02.45.065.08.025.158.036.236.036.738 0 1.373-.992 2.23-1.16.177-.035.345-.07.49-.07" transform="translate(-815 -4870) translate(815 4870.5)"/>
                <path fill="#300771" d="M17.18 59.776c-.377 0-.7.063-.937.11-.97.19-1.656.686-2.119 1.034-.116-.011-.232-.016-.349-.016-1.024 0-1.83.385-2.364.639l-.005.003-.166-.105-.743-.005c-.969 0-1.879.547-2.317 1.393l-.12.24c-.509 1.015-.847 1.649-1.359 1.913l-1.689.867.383 1.862.003.007c-.074.16-.377.509-.58.745-.397.456-.867.997-1.23 1.693-.582.188-1.482.542-2.145 1.455L.285 73.203 1.561 74.7l.047.056c.301.358 1.046 1.24 2.298 1.44.551 1.464 1.771 2.007 2.767 2.007.32 0 .606-.052.848-.118l1.795.794.312-1.008.072.03c.501.222 1.127.496 1.897.605.692.099 1.35.1 1.927.102.767.002 1.373.003 1.82.206l3.637 1.658-.095-3.717c.525.222 1.073.335 1.616.335 1.53 0 2.88-.88 3.615-2.353.956-1.924.74-4.003-.56-5.446-.004-.066-.005-.177.003-.367.013-.322.008-.641.001-.961-.007-.364-.015-.71.023-.932.218-1.271 0-2.364-.649-3.246-.638-.867-1.609-1.406-2.888-1.602-.257-1.434-1.388-2.408-2.867-2.408m0 2.5c.246 0 .416.104.421.49.014 1.36.895 1.729 1.992 1.879 1.17.156 1.745.694 1.526 1.969-.12.718-.028 1.472-.056 2.207-.033.779-.002 1.457.615 2.12.696.752.66 1.758.2 2.683-.317.636-.814.967-1.376.967-.322 0-.666-.108-1.009-.332-.35-.23-.597-.541-1.11-.543h-.023c-1.719 0-2.04.4-1.98 2.825-1.459-.665-2.973-.3-4.43-.508-.975-.14-1.82-.875-2.869-.875-.086 0-.173.006-.262.016-.02.002-.038.003-.058.003-.189 0-.404-.096-.593-.096-.169 0-.318.078-.41.376-.044-.02-.09-.03-.14-.03-.285 0-.645.277-.945.277-.236 0-.434-.171-.526-.784-.068-.447-.693-1.19-1.544-1.19-.038 0-.077.002-.116.005-.022.002-.042.003-.064.003-.435 0-.699-.353-.958-.657.556-.765 1.837-.454 2.18-1.41.566-1.578 2.621-2.415 2.2-4.465 1.34-.69 1.925-1.976 2.555-3.227.011-.022.064-.043.097-.043.008 0 .016.002.021.005.267.169.52.234.766.234.843 0 1.59-.771 2.491-.771.145 0 .295.02.45.066.08.025.158.035.236.035.738 0 1.373-.991 2.23-1.16.177-.034.345-.07.49-.07M37.552 43.922c-.377 0-.7.063-.937.11-.97.191-1.656.686-2.119 1.034-.116-.01-.232-.016-.349-.016-1.024 0-1.83.385-2.364.64l-.005.002-.166-.105-.743-.005c-.97 0-1.88.55-2.319 1.397l-.119.237c-.508 1.014-.846 1.65-1.358 1.912l-1.689.867.383 1.862.003.007c-.074.16-.377.51-.58.745-.397.456-.867.997-1.23 1.693-.582.188-1.482.542-2.145 1.455l-1.157 1.592 1.275 1.498.047.055c.301.36 1.046 1.242 2.298 1.441.551 1.464 1.771 2.007 2.767 2.007.32 0 .606-.052.848-.118l1.795.795.312-1.009.072.031c.502.221 1.127.495 1.897.604.693.1 1.35.101 1.927.102.767.002 1.374.003 1.82.206l3.637 1.658-.095-3.716c.526.221 1.073.335 1.616.335 1.53 0 2.88-.879 3.615-2.354.956-1.924.74-4.003-.56-5.446-.004-.066-.005-.176.004-.367.013-.322.007-.64.001-.96-.008-.366-.015-.71.023-.933.217-1.27-.002-2.364-.65-3.246-.637-.867-1.609-1.406-2.888-1.602-.257-1.433-1.388-2.408-2.867-2.408m0 2.5c.247 0 .417.104.421.491.014 1.36.895 1.728 1.992 1.878 1.17.157 1.745.695 1.527 1.97-.122.717-.028 1.472-.057 2.206-.033.78-.002 1.457.615 2.121.696.751.66 1.757.2 2.682-.317.636-.814.968-1.376.968-.322 0-.666-.109-1.009-.333-.35-.229-.597-.54-1.11-.543h-.023c-1.719 0-2.04.4-1.98 2.825-1.459-.665-2.973-.3-4.43-.508-.974-.139-1.822-.875-2.869-.875-.086 0-.173.006-.262.016-.019.002-.038.003-.058.003-.189 0-.403-.096-.592-.096-.17 0-.319.078-.41.376-.045-.02-.092-.029-.142-.029-.284 0-.644.276-.944.276-.236 0-.433-.17-.526-.784-.068-.447-.693-1.189-1.544-1.189-.038 0-.077.001-.115.004-.022.002-.043.003-.065.003-.435 0-.699-.353-.958-.657.556-.765 1.837-.454 2.18-1.409.566-1.579 2.621-2.416 2.2-4.466 1.34-.689 1.925-1.975 2.555-3.227.011-.022.064-.043.097-.043.01 0 .016.002.021.005.267.17.521.234.766.234.843 0 1.59-.77 2.491-.77.145 0 .295.02.45.065.08.025.16.036.236.036.738 0 1.373-.992 2.23-1.16.177-.035.345-.07.49-.07" transform="translate(-815 -4870) translate(815 4870.5)"/>
                <path fill="#300771" d="M57.925 43.922c-.378 0-.7.063-.937.11-.97.191-1.656.686-2.12 1.034-.116-.01-.232-.016-.349-.016-1.024 0-1.829.385-2.364.64l-.005.002-.166-.105-.743-.005c-.968 0-1.879.547-2.316 1.393l-.122.241c-.508 1.014-.846 1.65-1.357 1.912l-1.69.867.384 1.862.003.007c-.074.16-.377.51-.58.745-.397.456-.867.997-1.232 1.693-.58.188-1.48.542-2.144 1.455L41.03 57.35l1.275 1.498.048.056c.301.358 1.045 1.241 2.297 1.44.551 1.464 1.771 2.007 2.767 2.007.32 0 .606-.052.848-.118l1.795.794.312-1.008.072.031c.502.221 1.127.495 1.897.604.693.1 1.35.101 1.927.102.767.002 1.374.003 1.82.206l3.637 1.658-.094-3.716c.525.221 1.072.335 1.615.335 1.53 0 2.88-.879 3.615-2.354.97-1.953.76-3.983-.56-5.446-.004-.066-.004-.177.004-.367.013-.322.008-.64.001-.96-.008-.365-.015-.71.023-.933.217-1.27 0-2.364-.65-3.246-.637-.867-1.608-1.406-2.888-1.602-.257-1.434-1.387-2.408-2.866-2.408m0 2.5c.246 0 .416.104.42.491.014 1.36.895 1.728 1.992 1.878 1.17.157 1.745.695 1.527 1.97-.122.717-.028 1.472-.057 2.206-.033.78-.002 1.457.615 2.121.696.751.66 1.757.201 2.682-.317.636-.814.968-1.377.968-.322 0-.666-.109-1.008-.333-.352-.229-.598-.54-1.11-.543h-.024c-1.719 0-2.04.4-1.98 2.825-1.459-.665-2.973-.3-4.43-.508-.974-.139-1.82-.875-2.868-.875-.087 0-.174.006-.263.016l-.057.003c-.19 0-.404-.096-.593-.096-.17 0-.319.078-.41.376-.045-.02-.092-.029-.14-.029-.286 0-.646.276-.946.276-.235 0-.433-.17-.526-.784-.067-.447-.693-1.189-1.544-1.189-.038 0-.076.001-.115.004l-.064.003c-.436 0-.7-.353-.959-.657.556-.765 1.837-.454 2.18-1.409.566-1.579 2.622-2.416 2.2-4.466 1.34-.689 1.925-1.975 2.556-3.227.01-.022.064-.043.096-.043.01 0 .016.002.021.005.267.17.521.234.767.234.842 0 1.588-.77 2.49-.77.145 0 .295.02.45.065.08.025.16.036.236.036.738 0 1.373-.992 2.23-1.16.177-.035.346-.07.49-.07" transform="translate(-815 -4870) translate(815 4870.5)"/>
                <path stroke="#300771" stroke-width="2.5" d="M56.749.962L62.959 6.988 3.466 6.988 10.729.962M77.64 72.493L71.614 78.701 71.614 14.143 77.64 21.409" transform="translate(-815 -4870) translate(815 4870.5)"/>
            </g>
        </g>
    </g>
</svg>
