<svg xmlns="http://www.w3.org/2000/svg" xmlns:xlink="http://www.w3.org/1999/xlink" width="76" height="78" viewBox="0 0 76 78">
    <defs>
        <path id="4eiuyf1wwa" d="M0.492 0.261L22.32 0.261 22.32 4.717 0.492 4.717z"/>
    </defs>
    <g fill="none" fill-rule="evenodd">
        <g>
            <g>
                <path fill="#300771" d="M43.385 65.045c3.778-3.261 9.387-10.479 10.34-24.925h10.864c-.57 12.303-9.486 22.459-21.204 24.925zM11.152 40.12h10.864c.952 14.446 6.56 21.663 10.338 24.925C20.637 62.578 11.72 52.422 11.152 40.12zm6.763-19.04c.91.927 2.895 2.774 5.75 4.536-1.113 3.325-1.83 7.308-1.755 12.004H11.152c.294-6.335 2.8-12.098 6.763-16.54zm34.192 4.664c2.537-1.383 4.615-2.91 6.096-4.226 3.744 4.379 6.102 9.972 6.386 16.102H53.832c.074-4.598-.611-8.536-1.725-11.876zM39.12 37.62v-7.961c3.966-.262 7.625-1.366 10.763-2.802.95 3.028 1.523 6.593 1.449 10.763H39.12zm0 27.385V40.12h12.1c-1.293 18.939-10.745 24.225-12.1 24.885zm0 .477l.043.105-.043.002v-.107zm-2.5-.002v.109l-.044-.002.044-.107zm0-25.36v24.885c-1.351-.658-10.806-5.942-12.1-24.885h12.1zM24.574 23.226c-2.08-1.314-3.757-2.736-4.91-3.931 3.45-3.21 7.744-5.521 12.51-6.559-1.072.931-2.251 2.099-3.418 3.533-1.422 1.748-2.935 4.055-4.182 6.957zM36.62 12.527v14.672c-3.673-.148-7.048-1.268-9.893-2.74 2.94-7.088 7.852-10.685 9.893-11.932zm6.868.192c4.992 1.071 9.469 3.54 13.005 6.975-1.3 1.154-3.092 2.482-5.277 3.704-2.152-5.045-5.233-8.509-7.728-10.679zm-4.368-.192c2.046 1.249 6.975 4.86 9.913 11.981-2.881 1.34-6.252 2.385-9.913 2.648V12.527zM25.862 26.843c2.968 1.509 6.609 2.711 10.758 2.852v7.925H24.408c-.074-4.176.5-7.747 1.454-10.777zM37.87 9.62c-16.13 0-29.25 13.121-29.25 29.25 0 16.129 13.12 29.25 29.25 29.25 16.129 0 29.25-13.121 29.25-29.25 0-16.129-13.121-29.25-29.25-29.25z" transform="translate(-260 -4872) translate(260 4872.5)"/>
                <path stroke="#300771" stroke-width="2.5" d="M18.347 58.019c2.694-2.982 10.09-8.946 19.523-8.754 9.433.192 17.275 5.579 20.424 8.754" transform="translate(-260 -4872) translate(260 4872.5)"/>
                <path fill="#FFF" d="M67.315 11.002c0 4.064-7.359 13.099-7.359 13.099s-7.359-9.035-7.359-13.099 3.295-7.359 7.36-7.359c4.063 0 7.358 3.295 7.358 7.359" transform="translate(-260 -4872) translate(260 4872.5)"/>
                <path fill="#300771" d="M59.956 4.893c-3.368 0-6.108 2.74-6.108 6.109 0 2.34 3.424 7.583 6.108 11.08 2.684-3.497 6.11-8.74 6.11-11.08 0-3.37-2.74-6.11-6.11-6.11zm0 21.187l-.969-1.19c-.782-.96-7.639-9.505-7.639-13.888 0-4.747 3.861-8.61 8.608-8.61s8.61 3.863 8.61 8.61c0 4.383-6.859 12.928-7.64 13.888l-.97 1.19z" transform="translate(-260 -4872) translate(260 4872.5)"/>
                <path fill="#300771" d="M62.701 10.71c0 1.516-1.229 2.744-2.745 2.744s-2.744-1.228-2.744-2.744c0-1.516 1.228-2.744 2.744-2.744 1.516 0 2.745 1.228 2.745 2.744" transform="translate(-260 -4872) translate(260 4872.5)"/>
                <path fill="#FFF" d="M23.901 11.002c0 4.064-7.359 13.099-7.359 13.099s-7.36-9.035-7.36-13.099 3.295-7.359 7.36-7.359c4.064 0 7.36 3.295 7.36 7.359" transform="translate(-260 -4872) translate(260 4872.5)"/>
                <path fill="#300771" d="M16.542 4.893c-3.369 0-6.109 2.74-6.109 6.109 0 2.34 3.425 7.583 6.109 11.08 2.684-3.497 6.109-8.74 6.109-11.08 0-3.37-2.74-6.11-6.109-6.11zm0 21.187l-.969-1.19c-.782-.96-7.64-9.505-7.64-13.888 0-4.747 3.862-8.61 8.609-8.61s8.609 3.863 8.609 8.61c0 4.383-6.858 12.928-7.64 13.888l-.969 1.19z" transform="translate(-260 -4872) translate(260 4872.5)"/>
                <path fill="#300771" d="M19.286 10.71c0 1.516-1.229 2.744-2.744 2.744-1.516 0-2.744-1.228-2.744-2.744 0-1.516 1.228-2.744 2.744-2.744 1.515 0 2.744 1.228 2.744 2.744" transform="translate(-260 -4872) translate(260 4872.5)"/>
                <path fill="#FFF" d="M67.315 49.242c0 4.064-7.359 13.1-7.359 13.1s-7.359-9.036-7.359-13.1c0-4.063 3.295-7.358 7.36-7.358 4.063 0 7.358 3.295 7.358 7.358" transform="translate(-260 -4872) translate(260 4872.5)"/>
                <path fill="#300771" d="M59.956 43.134c-3.368 0-6.108 2.74-6.108 6.108 0 2.34 3.424 7.583 6.108 11.08 2.684-3.497 6.11-8.74 6.11-11.08 0-3.368-2.74-6.108-6.11-6.108zm0 21.187l-.969-1.191c-.782-.96-7.639-9.505-7.639-13.888 0-4.747 3.861-8.608 8.608-8.608s8.61 3.86 8.61 8.608c0 4.383-6.859 12.928-7.64 13.888l-.97 1.19z" transform="translate(-260 -4872) translate(260 4872.5)"/>
                <path fill="#300771" d="M62.701 48.951c0 1.516-1.229 2.744-2.745 2.744s-2.744-1.228-2.744-2.744c0-1.516 1.228-2.745 2.744-2.745 1.516 0 2.745 1.23 2.745 2.745" transform="translate(-260 -4872) translate(260 4872.5)"/>
                <path fill="#FFF" d="M24.588 49.242c0 4.064-7.36 13.1-7.36 13.1s-7.358-9.036-7.358-13.1c0-4.063 3.295-7.358 7.359-7.358s7.359 3.295 7.359 7.358" transform="translate(-260 -4872) translate(260 4872.5)"/>
                <path fill="#300771" d="M17.229 43.134c-3.368 0-6.108 2.74-6.108 6.108 0 2.34 3.423 7.583 6.107 11.08 2.684-3.497 6.11-8.74 6.11-11.08 0-3.368-2.74-6.108-6.11-6.108zm0 21.187l-.97-1.191c-.782-.96-7.639-9.505-7.639-13.888 0-4.747 3.862-8.608 8.609-8.608s8.608 3.86 8.608 8.608c0 4.383-6.857 12.928-7.64 13.888l-.968 1.19z" transform="translate(-260 -4872) translate(260 4872.5)"/>
                <path fill="#300771" d="M19.974 48.951c0 1.516-1.23 2.744-2.745 2.744-1.516 0-2.744-1.228-2.744-2.744 0-1.516 1.228-2.745 2.744-2.745 1.516 0 2.745 1.23 2.745 2.745M.665 45.973C.224 43.643 0 41.253 0 38.87c0-7.48 2.179-14.715 6.3-20.921l2.082 1.382C4.534 25.126 2.5 31.883 2.5 38.87c0 2.228.209 4.46.622 6.638l-2.457.465zM37.87 76.74c-6.692 0-13.27-1.77-19.02-5.117l1.258-2.16c5.37 3.125 11.511 4.776 17.762 4.776 7.088 0 13.926-2.089 19.774-6.04l1.401 2.072C52.78 74.503 45.458 76.74 37.87 76.74M75.175 45.42l-2.463-.43c.35-2.002.527-4.061.527-6.12 0-6.804-1.935-13.411-5.598-19.105l2.103-1.352c3.922 6.098 5.995 13.172 5.995 20.457 0 2.202-.19 4.406-.564 6.55" transform="translate(-260 -4872) translate(260 4872.5)"/>
                <g transform="translate(-260 -4872) translate(260 4872.5) translate(28 .74)">
                    <mask id="thqm6am5kb" fill="#fff">
                        <use xlink:href="#4eiuyf1wwa"/>
                    </mask>
                    <path fill="#300771" d="M21.498 4.717C17.769 3.419 13.857 2.76 9.87 2.76c-2.968 0-5.915.368-8.761 1.093L.492 1.432C3.539.655 6.694.26 9.87.26c4.268 0 8.457.705 12.45 2.095l-.822 2.36z" mask="url(#thqm6am5kb)"/>
                </g>
            </g>
        </g>
    </g>
</svg>
