<svg xmlns="http://www.w3.org/2000/svg" width="21" height="20" viewBox="0 0 21 20">
    <g fill="none" fill-rule="evenodd">
        <g>
            <g>
                <path d="M0 0L21 0 21 20 0 20z" transform="translate(-279 -18) translate(279 18)"/>
                <path fill="#000" fill-rule="nonzero" d="M1.167 17h18.666c.642 0 1.167-.525 1.167-1.167 0-.641-.525-1.166-1.167-1.166H1.167c-.642 0-1.167.525-1.167 1.166C0 16.475.525 17 1.167 17zm0-5.833h18.666c.642 0 1.167-.525 1.167-1.167s-.525-1.167-1.167-1.167H1.167C.525 8.833 0 9.358 0 10s.525 1.167 1.167 1.167zM0 4.167c0 .641.525 1.166 1.167 1.166h18.666c.642 0 1.167-.525 1.167-1.166C21 3.525 20.475 3 19.833 3H1.167C.525 3 0 3.525 0 4.167z" transform="translate(-279 -18) translate(279 18)"/>
            </g>
        </g>
    </g>
</svg>
