<svg xmlns="http://www.w3.org/2000/svg" xmlns:xlink="http://www.w3.org/1999/xlink" width="222" height="57" viewBox="0 0 222 57">
    <defs>
        <path id="44oxfjfbja" d="M0 0.091L14.287 0.091 14.287 24.278 0 24.278z"/>
    </defs>
    <g fill="none" fill-rule="evenodd">
        <g>
            <g>
                <text fill="#050505" font-family="Metropolis-Bold, Metropolis" font-size="34" font-weight="bold" transform="translate(-608 -3602) translate(608 3602)">
                    <tspan x="150.955" y="34">App</tspan>
                </text>
                <g>
                    <g transform="translate(-608 -3602) translate(608 3602) translate(0 10.5) translate(0 5.404)">
                        <mask id="vmym3k5s4b" fill="#fff">
                            <use xlink:href="#44oxfjfbja"/>
                        </mask>
                        <path fill="#300771" d="M12.09 9.982H4.392V2.29h.003c0-1.213-.984-2.198-2.198-2.198S0 1.076 0 2.29V22.08c0 1.214.984 2.198 2.198 2.198s2.198-.984 2.198-2.198h-.003v-7.702h7.696c1.214 0 2.198-.984 2.198-2.198s-.984-2.198-2.198-2.198" mask="url(#vmym3k5s4b)"/>
                    </g>
                    <path fill="#300771" d="M32.97 5.495c-1.214 0-2.198.984-2.198 2.198v7.693h-7.693c-1.214 0-2.198.984-2.198 2.198s.984 2.198 2.198 2.198h7.693v7.702c0 1.214.984 2.198 2.198 2.198s2.198-.984 2.198-2.198V7.693c0-1.214-.984-2.198-2.198-2.198M26.376 0H8.792C7.578 0 6.594.984 6.594 2.198s.984 2.198 2.198 2.198h17.584c1.214 0 2.198-.984 2.198-2.198S27.59 0 26.376 0M26.376 30.686H8.792c-1.214 0-2.198.984-2.198 2.198s.984 2.198 2.198 2.198h17.584c1.214 0 2.198-.984 2.198-2.198s-.984-2.198-2.198-2.198" transform="translate(-608 -3602) translate(608 3602) translate(0 10.5)"/>
                    <path fill="#000" d="M50.188 10.207L50.188 15.007 62.276 15.007 62.276 19.667 50.188 19.667 50.188 24.957 63.537 24.957 63.537 29.617 45.003 29.617 45.003 5.547 63.537 5.547 63.537 10.207zM95.56 18.09v11.562h-4.905V18.966c0-2.102-1.332-3.574-3.224-3.574-2.032 0-3.503 1.367-3.503 3.294v10.966h-4.906V18.966c0-2.102-1.331-3.574-3.188-3.574-2.067 0-3.503 1.367-3.503 3.294v10.931h-5.116V11.503h5.116v2.383c.875-1.717 2.662-2.803 4.905-2.803 2.487 0 4.625 1.261 5.746 3.294.946-1.998 3.188-3.294 5.886-3.294 3.784 0 6.692 2.908 6.692 7.007M114.409 20.543c0-3.013-1.998-5.15-4.836-5.15-2.487 0-4.31 1.821-4.59 4.45v1.4c.28 2.663 2.103 4.485 4.59 4.485 2.838 0 4.836-2.137 4.836-5.185m4.974 0c0 5.57-3.503 9.495-8.338 9.495-2.523 0-4.625-1.086-6.061-2.978v8.584h-5.116v-24.14h5.116v2.522c1.436-1.857 3.538-2.943 6.06-2.943 4.836 0 8.34 3.924 8.34 9.46M136.835 19.992c0-2.94-2.39-5.403-5.22-5.403-2.867 0-5.257 2.463-5.257 5.403 0 2.94 2.39 5.44 5.257 5.44 2.83 0 5.22-2.5 5.22-5.44m-15.624 0c0-5.403 4.743-9.925 10.404-9.925 5.624 0 10.33 4.522 10.33 9.925 0 5.404-4.706 9.963-10.33 9.963-5.661 0-10.404-4.559-10.404-9.963" transform="translate(-608 -3602) translate(608 3602) translate(0 10.5)"/>
                </g>
            </g>
        </g>
    </g>
</svg>
