<svg xmlns="http://www.w3.org/2000/svg" width="79" height="64" viewBox="0 0 79 64">
    <g fill="none" fill-rule="evenodd">
        <g fill="#300771">
            <g>
                <path d="M56.506 26.76H46.268l-8.314 10.733H22.429L1.058 62.062h76.819V5.492L56.506 26.76zm11.148-7.567l7.723-7.685v48.054h-7.723v-40.37zm-9.382 9.337l6.883-6.85v37.882h-6.883V28.53zm-9.383 10.214V29.26h6.883v30.3h-6.883V38.745zm-9.383.829l6.883-8.886v28.875h-6.883v-19.99zm-7.711 19.989h5.212V39.994h-5.212v19.568zm-7.712 0h5.212V39.994h-5.212v19.568zm-7.588-11.437l5.088-5.85v17.287h-5.088V48.125zm-2.501 2.874v8.563H6.546l7.448-8.563z" transform="translate(-815 -4677) translate(815 4677.5)"/>
                <path d="M62.011 1.097L62.173 3.592 72.325 2.929 55.447 19.725 43.409 19.725 35.095 30.457 19.57 30.457 0 52.955 1.885 54.596 20.709 32.957 36.32 32.957 44.634 22.225 56.478 22.225 78.811 0z" transform="translate(-815 -4677) translate(815 4677.5)"/>
            </g>
        </g>
    </g>
</svg>
