<svg xmlns="http://www.w3.org/2000/svg" width="76" height="78" viewBox="0 0 76 78">
    <g fill="none" fill-rule="evenodd">
        <g fill="#300771">
            <g>
                <path d="M72.941 66.497H.001v10.775h75.69V66.497h-2.75zm-70.19 8.025h70.19v-5.275H2.751v5.275zM32.634 0V40.731L20.975 29.078l-1.89-1.89-1.942 1.835-3.839 3.623-2.058 1.942 2.002 2.003 22.83 22.82 1.96 1.96 1.945-1.976 22.344-22.713 1.913-1.946-1.93-1.928-3.73-3.73-1.944-1.945-1.944 1.945L43.41 40.357V0H32.634zm2.75 27.968V2.75h5.277v44.248l15.975-15.976 3.73 3.73-22.343 22.713-22.83-22.82 3.838-3.623 16.353 16.345v-19.4z" transform="translate(-260 -4670) translate(260 4670)"/>
            </g>
        </g>
    </g>
</svg>
