<svg xmlns="http://www.w3.org/2000/svg" width="38" height="38" viewBox="0 0 38 38">
    <g fill="none" fill-rule="evenodd">
        <g>
            <g transform="translate(-142 -6234) translate(142 6234)">
                <circle cx="19" cy="19" r="19" fill="#848484"/>
                <g fill="#FFF" fill-rule="nonzero">
                    <path d="M.356.676C.14.963.018 1.316.018 1.694v14.962c0 .35.105.68.294.956l8.14-8.491L.357.676zM9.198 8.343l2.64-2.754L2.557.229C2.153-.004 1.69-.059 1.259.062l7.939 8.281zM9.198 9.898l-8.02 8.365c.174.058.353.087.532.087.29 0 .58-.076.846-.23l9.35-5.398-2.708-2.824zM15.513 7.71l-2.714-1.567L9.943 9.12l2.922 3.048 2.648-1.529c.53-.306.846-.854.846-1.465 0-.612-.317-1.16-.846-1.465z" transform="translate(12.5 9.5)"/>
                </g>
            </g>
        </g>
    </g>
</svg>
