<svg xmlns="http://www.w3.org/2000/svg" width="38" height="38" viewBox="0 0 38 38">
    <g fill="none" fill-rule="evenodd">
        <g>
            <g transform="translate(-252 -6234) translate(252 6234)">
                <circle cx="19" cy="19" r="19" fill="#848484"/>
                <g fill="#FFF" fill-rule="nonzero">
                    <path d="M17.668 1.763L19.2.317V0h-5.307L10.11 9.29 5.807 0H.242v.317l1.79 2.126c.174.157.266.386.242.618v8.355c.056.3-.044.61-.258.829L0 14.655v.313h5.716v-.316L3.7 12.245c-.218-.22-.322-.524-.278-.83V4.19L8.44 14.972h.583L13.338 4.19v8.59c0 .227 0 .273-.15.422l-1.553 1.482V15h7.53v-.317l-1.496-1.445c-.131-.098-.2-.262-.171-.422V2.184c-.028-.16.039-.324.17-.421z" transform="translate(9 11)"/>
                </g>
            </g>
        </g>
    </g>
</svg>
