<svg xmlns="http://www.w3.org/2000/svg" width="38" height="38" viewBox="0 0 38 38">
    <g fill="none" fill-rule="evenodd">
        <g>
            <g transform="translate(-31 -6234) translate(31 6234)">
                <circle cx="19" cy="19" r="19" fill="#848484"/>
                <path fill="#FFF" fill-rule="nonzero" d="M28.651 14.672c-.239-.889-.939-1.589-1.827-1.828C25.2 12.4 18.71 12.4 18.71 12.4s-6.49 0-8.113.427c-.87.239-1.588.956-1.827 1.845-.427 1.622-.427 4.987-.427 4.987s0 3.382.427 4.988c.239.888.939 1.588 1.827 1.827 1.64.444 8.114.444 8.114.444s6.49 0 8.113-.427c.888-.239 1.588-.94 1.828-1.827.427-1.623.427-4.988.427-4.988s.017-3.382-.428-5.004zm-12.007 8.096V16.55l5.397 3.11-5.397 3.108z"/>
            </g>
        </g>
    </g>
</svg>
