<svg xmlns="http://www.w3.org/2000/svg" width="38" height="38" viewBox="0 0 38 38">
    <g fill="none" fill-rule="evenodd">
        <g>
            <g transform="translate(-87 -6234) translate(87 6234)">
                <circle cx="19" cy="19" r="19" fill="#848484"/>
                <g fill="#FFF" fill-rule="nonzero">
                    <path d="M18.312 5.394c-.043-.975-.2-1.645-.426-2.226-.233-.616-.591-1.168-1.06-1.627-.46-.466-1.015-.828-1.625-1.057-.584-.226-1.25-.384-2.225-.427C11.994.011 11.682 0 9.19 0 6.701 0 6.388.01 5.41.054c-.975.043-1.645.2-2.226.426-.616.233-1.168.592-1.627 1.061C1.091 2 .73 2.555.5 3.165.274 3.749.116 4.415.073 5.39.027 6.372.016 6.684.016 9.175c0 2.49.01 2.803.054 3.781.043.975.2 1.645.426 2.226.233.616.595 1.168 1.061 1.627.459.466 1.015.828 1.624 1.057.584.226 1.25.384 2.226.427.978.043 1.29.053 3.78.053 2.492 0 2.803-.01 3.782-.053.975-.043 1.645-.2 2.225-.427 1.233-.476 2.208-1.451 2.685-2.684.226-.584.383-1.251.426-2.226.043-.978.054-1.29.054-3.781 0-2.49-.004-2.803-.047-3.781zm-1.652 7.49c-.04.896-.19 1.38-.315 1.703-.308.8-.943 1.433-1.742 1.742-.323.125-.81.276-1.702.315-.968.043-1.258.054-3.706.054s-2.742-.01-3.706-.054c-.896-.04-1.38-.19-1.703-.315-.397-.147-.76-.38-1.053-.685-.305-.297-.538-.656-.685-1.053-.125-.323-.276-.81-.315-1.703-.043-.968-.054-1.258-.054-3.706s.01-2.742.054-3.706c.04-.896.19-1.38.315-1.702.147-.398.38-.76.688-1.054.298-.304.656-.537 1.054-.684.323-.126.81-.276 1.702-.316.968-.043 1.259-.053 3.706-.053 2.452 0 2.742.01 3.706.053.896.04 1.38.19 1.703.316.397.147.76.38 1.053.684.305.298.538.656.685 1.054.125.323.276.81.315 1.702.043.968.054 1.258.054 3.706s-.01 2.735-.054 3.702z" transform="translate(9.5 9.5)"/>
                    <path d="M9.191 4.462c-2.602 0-4.713 2.111-4.713 4.713s2.111 4.713 4.713 4.713 4.713-2.11 4.713-4.713c0-2.602-2.11-4.713-4.713-4.713zm0 7.77c-1.688 0-3.057-1.369-3.057-3.057s1.37-3.057 3.057-3.057c1.688 0 3.057 1.369 3.057 3.057s-1.369 3.057-3.057 3.057zM15.19 4.276c0 .607-.492 1.1-1.1 1.1-.607 0-1.1-.493-1.1-1.1 0-.608.493-1.1 1.1-1.1.608 0 1.1.492 1.1 1.1z" transform="translate(9.5 9.5)"/>
                </g>
            </g>
        </g>
    </g>
</svg>
