<svg xmlns="http://www.w3.org/2000/svg" width="18" height="18" viewBox="0 0 18 18">
    <g fill="none" fill-rule="evenodd">
        <g fill="#999" fill-rule="nonzero">
            <path d="M226.991 19c-4.968 0-8.991 4.032-8.991 9s4.023 9 8.991 9c4.977 0 9.009-4.032 9.009-9s-4.032-9-9.009-9zm6.237 5.4h-2.655c-.288-1.125-.702-2.205-1.242-3.204 1.656.567 3.033 1.719 3.897 3.204zM227 20.836c.747 1.08 1.332 2.277 1.719 3.564h-3.438c.387-1.287.972-2.484 1.719-3.564zm-6.966 8.964c-.144-.576-.234-1.179-.234-1.8s.09-1.224.234-1.8h3.042c-.072.594-.126 1.188-.126 1.8 0 .612.054 1.206.126 1.8h-3.042zm.738 1.8h2.655c.288 1.125.702 2.205 1.242 3.204-1.656-.567-3.033-1.71-3.897-3.204zm2.655-7.2h-2.655c.864-1.494 2.241-2.637 3.897-3.204-.54.999-.954 2.079-1.242 3.204zM227 35.164c-.747-1.08-1.332-2.277-1.719-3.564h3.438c-.387 1.287-.972 2.484-1.719 3.564zm2.106-5.364h-4.212c-.081-.594-.144-1.188-.144-1.8 0-.612.063-1.215.144-1.8h4.212c.081.585.144 1.188.144 1.8 0 .612-.063 1.206-.144 1.8zm.225 5.004c.54-.999.954-2.079 1.242-3.204h2.655c-.864 1.485-2.241 2.637-3.897 3.204zm1.593-5.004c.072-.594.126-1.188.126-1.8 0-.612-.054-1.206-.126-1.8h3.042c.144.576.234 1.179.234 1.8s-.09 1.224-.234 1.8h-3.042z" transform="translate(-218 -19)"/>
        </g>
    </g>
</svg>
