<svg xmlns="http://www.w3.org/2000/svg" xmlns:xlink="http://www.w3.org/1999/xlink" width="111" height="19" viewBox="0 0 111 19">
    <defs>
        <path id="5cxqy5juga" d="M0 1.098v9.894c0 .608.492 1.098 1.098 1.098.608 0 1.1-.49 1.1-1.098h-.001V7.141h3.848c.606 0 1.098-.493 1.098-1.099s-.492-1.098-1.098-1.098H2.197V1.098h.001c0-.608-.492-1.1-1.1-1.1C.492-.002 0 .49 0 1.098z"/>
        <path id="srvmhcacpc" d="M5.386 1.096v3.848H1.54c-.608 0-1.1.492-1.1 1.098 0 .606.492 1.099 1.1 1.099h3.846v3.851c0 .608.493 1.098 1.099 1.098s1.098-.49 1.098-1.098V1.096c0-.606-.492-1.098-1.098-1.098-.606 0-1.099.492-1.099 1.098z"/>
        <path id="3f4d8maloe" d="M1.395.25C.789.25.297.742.297 1.35c0 .606.492 1.098 1.098 1.098h8.793c.608 0 1.1-.492 1.1-1.098 0-.608-.492-1.1-1.1-1.1H1.395z"/>
        <path id="gg7p0b5k6g" d="M1.395.593c-.606 0-1.098.492-1.098 1.1 0 .606.492 1.098 1.098 1.098h8.793c.608 0 1.1-.492 1.1-1.098 0-.608-.492-1.1-1.1-1.1H1.395z"/>
        <path id="3p9vrjn10i" d="M0.501 0.024L0.501 12.059 9.769 12.059 9.769 9.729 3.095 9.729 3.095 7.083 9.138 7.083 9.138 4.753 3.095 4.753 3.095 2.354 9.769 2.354 9.769 0.024z"/>
        <path id="60sskcthuk" d="M8.491 2.438C7.93 1.422 6.862.792 5.618.792c-1.122 0-2.015.542-2.452 1.401V1.001H.608v9.058h2.558V4.593c0-.963.717-1.646 1.752-1.646.927 0 1.594.735 1.594 1.787v5.343h2.451V4.593c0-.963.737-1.646 1.753-1.646.945 0 1.611.735 1.611 1.787v5.343h2.453V4.295c0-2.049-1.455-3.503-3.345-3.503-1.35 0-2.472.648-2.944 1.646z"/>
        <path id="lahdpl8w9m" d="M3.492 2.264V1.001H.934v12.072h2.558V8.779c.719.948 1.768 1.491 3.031 1.491 2.416 0 4.169-1.963 4.169-4.748 0-2.769-1.753-4.73-4.169-4.73-1.263 0-2.312.542-3.031 1.472zm0 3.609v-.702c.139-1.313 1.052-2.224 2.294-2.224 1.42 0 2.418 1.069 2.418 2.575 0 1.524-.998 2.592-2.418 2.592-1.242 0-2.155-.91-2.294-2.241z"/>
        <path id="7sdeh011to" d="M.607 5.246c0 2.703 2.371 4.982 5.2 4.982 2.812 0 5.164-2.279 5.164-4.982 0-2.701-2.352-4.961-5.164-4.961-2.829 0-5.2 2.26-5.2 4.961zm2.572 0c0-1.47 1.195-2.701 2.628-2.701 1.415 0 2.611 1.231 2.611 2.701S7.222 7.967 5.807 7.967c-1.433 0-2.628-1.251-2.628-2.721z"/>
    </defs>
    <g fill="none" fill-rule="evenodd">
        <g>
            <g>
                <path fill="#050505" d="M83.585 10.54l-1.733-4.268-1.735 4.267h3.468zm.867 2.124H79.25l-.747 1.836h-2.805l4.76-11.678h2.804l4.76 11.678H85.2l-.748-1.836z" transform="translate(-105 -2095) translate(105 2095)"/>
                <g fill="#050505">
                    <path d="M7.386 5.098c0-1.462-.969-2.5-2.346-2.5-1.207 0-2.09.885-2.226 2.16v.68C2.95 6.73 3.834 7.614 5.04 7.614c1.377 0 2.346-1.037 2.346-2.516m2.414 0c0 2.702-1.7 4.606-4.046 4.606-1.223 0-2.243-.527-2.94-1.445v4.165H.332V.712h2.482v1.224c.697-.9 1.717-1.428 2.94-1.428C8.1.508 9.8 2.412 9.8 5.098M18.606 5.098c0-1.462-.969-2.5-2.346-2.5-1.207 0-2.091.885-2.226 2.16v.68c.135 1.292 1.019 2.176 2.226 2.176 1.377 0 2.346-1.037 2.346-2.516m2.414 0c0 2.702-1.7 4.606-4.046 4.606-1.223 0-2.243-.527-2.94-1.445v4.165h-2.482V.712h2.482v1.224c.697-.9 1.717-1.428 2.94-1.428 2.346 0 4.046 1.904 4.046 4.59" transform="translate(-105 -2095) translate(105 2095) translate(89 5)"/>
                </g>
                <g transform="translate(-105 -2095) translate(105 2095) translate(0 3)">
                    <mask id="dqjp3025cb" fill="#fff">
                        <use xlink:href="#5cxqy5juga"/>
                    </mask>
                    <path fill="#300771" d="M-5 17.091L12.144 17.091 12.144 -5.002 -5 -5.002z" mask="url(#dqjp3025cb)"/>
                </g>
                <g transform="translate(-105 -2095) translate(105 2095) translate(10 3)">
                    <mask id="jpzw8yeb2d" fill="#fff">
                        <use xlink:href="#srvmhcacpc"/>
                    </mask>
                    <path fill="#300771" d="M-4.56 17.091L12.584 17.091 12.584 -5.002 -4.56 -5.002z" mask="url(#jpzw8yeb2d)"/>
                </g>
                <g transform="translate(-105 -2095) translate(105 2095) translate(3)">
                    <mask id="onuv93ckbf" fill="#fff">
                        <use xlink:href="#3f4d8maloe"/>
                    </mask>
                    <path fill="#300771" d="M-4.703 7.448L16.287 7.448 16.287 -4.75 -4.703 -4.75z" mask="url(#onuv93ckbf)"/>
                </g>
                <g transform="translate(-105 -2095) translate(105 2095) translate(3 15)">
                    <mask id="r9lv2awj4h" fill="#fff">
                        <use xlink:href="#gg7p0b5k6g"/>
                    </mask>
                    <path fill="#300771" d="M-4.703 7.791L16.287 7.791 16.287 -4.407 -4.703 -4.407z" mask="url(#r9lv2awj4h)"/>
                </g>
                <g transform="translate(-105 -2095) translate(105 2095) translate(22 3)">
                    <mask id="dio9nzo3aj" fill="#fff">
                        <use xlink:href="#3p9vrjn10i"/>
                    </mask>
                    <path fill="#000" d="M-4.499 17.058L14.768 17.058 14.768 -4.977 -4.499 -4.977z" mask="url(#dio9nzo3aj)"/>
                </g>
                <g transform="translate(-105 -2095) translate(105 2095) translate(33 5)">
                    <mask id="5fla6ou3il" fill="#fff">
                        <use xlink:href="#60sskcthuk"/>
                    </mask>
                    <path fill="#000" d="M-4.393 15.077L19.779 15.077 19.779 -4.208 -4.393 -4.208z" mask="url(#5fla6ou3il)"/>
                </g>
                <g transform="translate(-105 -2095) translate(105 2095) translate(49 5)">
                    <mask id="lfykffnxtn" fill="#fff">
                        <use xlink:href="#lahdpl8w9m"/>
                    </mask>
                    <path fill="#000" d="M-4.066 18.072L15.692 18.072 15.692 -4.208 -4.066 -4.208z" mask="url(#lfykffnxtn)"/>
                </g>
                <g transform="translate(-105 -2095) translate(105 2095) translate(60 5)">
                    <mask id="xoac31wsnp" fill="#fff">
                        <use xlink:href="#7sdeh011to"/>
                    </mask>
                    <path fill="#000" d="M-4.395 15.227L15.972 15.227 15.972 -4.716 -4.395 -4.716z" mask="url(#xoac31wsnp)"/>
                </g>
            </g>
        </g>
    </g>
</svg>
