<svg xmlns="http://www.w3.org/2000/svg" xmlns:xlink="http://www.w3.org/1999/xlink" width="142" height="36" viewBox="0 0 142 36">
    <defs>
        <path id="8ar4b0k22a" d="M0 0.058L9.001 0.058 9.001 15.295 0 15.295z"/>
    </defs>
    <g fill="none" fill-rule="evenodd">
        <g>
            <g>
                <text fill="#050505" font-family="Metropolis-Bold, Metropolis" font-size="21.42" font-weight="bold" transform="translate(-649 -7859) translate(649.5 7859)">
                    <tspan x="95.101" y="21">App</tspan>
                </text>
                <g>
                    <g transform="translate(-649 -7859) translate(649.5 7859) translate(0 6.615) translate(0 3.404)">
                        <mask id="x5r67gtkib" fill="#fff">
                            <use xlink:href="#8ar4b0k22a"/>
                        </mask>
                        <path fill="#300771" d="M7.616 6.289H2.768V1.442h.001C2.77.678 2.15.058 1.385.058.62.058 0 .678 0 1.442V13.91c0 .765.62 1.385 1.385 1.385s1.384-.62 1.384-1.385h-.001V9.058h4.848c.765 0 1.385-.62 1.385-1.385C9 6.91 8.38 6.29 7.616 6.29" mask="url(#x5r67gtkib)"/>
                    </g>
                    <path fill="#300771" d="M20.771 3.462c-.765 0-1.385.62-1.385 1.384v4.847H14.54c-.765 0-1.385.62-1.385 1.385s.62 1.385 1.385 1.385h4.846v4.852c0 .765.62 1.385 1.385 1.385s1.385-.62 1.385-1.385V4.846c0-.764-.62-1.384-1.385-1.384M16.617 0H5.539c-.765 0-1.385.62-1.385 1.385 0 .764.62 1.384 1.385 1.384h11.078c.765 0 1.385-.62 1.385-1.384C18.002.62 17.382 0 16.617 0M16.617 19.332H5.539c-.765 0-1.385.62-1.385 1.385S4.774 22.1 5.54 22.1h11.078c.765 0 1.385-.62 1.385-1.384 0-.765-.62-1.385-1.385-1.385" transform="translate(-649 -7859) translate(649.5 7859) translate(0 6.615)"/>
                    <path fill="#000" d="M31.619 6.43L31.619 9.454 39.234 9.454 39.234 12.39 31.619 12.39 31.619 15.723 40.028 15.723 40.028 18.659 28.352 18.659 28.352 3.495 40.028 3.495 40.028 6.43zM60.203 11.397v7.284h-3.09v-6.732c0-1.325-.84-2.252-2.031-2.252-1.28 0-2.208.861-2.208 2.075v6.909h-3.09v-6.732c0-1.325-.839-2.252-2.009-2.252-1.302 0-2.207.861-2.207 2.075v6.887h-3.222V7.247h3.222v1.501c.552-1.081 1.678-1.766 3.09-1.766 1.568 0 2.914.795 3.62 2.075.596-1.258 2.01-2.075 3.709-2.075 2.383 0 4.216 1.832 4.216 4.415M72.077 12.942c0-1.898-1.258-3.245-3.046-3.245-1.567 0-2.715 1.148-2.891 2.804v.882c.176 1.678 1.324 2.826 2.891 2.826 1.788 0 3.046-1.347 3.046-3.267m3.134 0c0 3.51-2.207 5.982-5.253 5.982-1.59 0-2.914-.684-3.818-1.876v5.408h-3.223V7.247h3.223v1.59c.904-1.17 2.229-1.855 3.818-1.855 3.046 0 5.253 2.472 5.253 5.96M86.206 12.595c0-1.852-1.505-3.404-3.289-3.404-1.806 0-3.311 1.552-3.311 3.404 0 1.853 1.505 3.428 3.311 3.428 1.784 0 3.289-1.575 3.289-3.428m-9.843 0c0-3.404 2.988-6.253 6.554-6.253 3.544 0 6.508 2.849 6.508 6.253 0 3.405-2.964 6.276-6.508 6.276-3.566 0-6.554-2.871-6.554-6.276" transform="translate(-649 -7859) translate(649.5 7859) translate(0 6.615)"/>
                </g>
            </g>
        </g>
    </g>
</svg>
