<svg xmlns="http://www.w3.org/2000/svg" xmlns:xlink="http://www.w3.org/1999/xlink" width="58" height="15" viewBox="0 0 58 15">
    <defs>
        <path id="h56271deza" d="M0 0.024L3.694 0.024 3.694 6.277 0 6.277z"/>
    </defs>
    <g fill="none" fill-rule="evenodd">
        <g>
            <g>
                <g>
                    <text fill="#050505" font-family="Metropolis-Bold, Metropolis" font-size="8.791" font-weight="bold" transform="translate(-130 -4749) translate(20 4539) translate(110 210)">
                        <tspan x="38.4" y="9">App</tspan>
                    </text>
                    <g>
                        <g transform="translate(-130 -4749) translate(20 4539) translate(110 210) translate(0 3.2) translate(0 1.397)">
                            <mask id="x960thkyzb" fill="#fff">
                                <use xlink:href="#h56271deza"/>
                            </mask>
                            <path fill="#300771" d="M3.126 2.58h-1.99V.593C1.137.278.883.024.569.024.254.024 0 .278 0 .592v5.117c0 .314.254.568.568.568.314 0 .569-.254.569-.568h-.001V3.717h1.99c.313 0 .568-.254.568-.568 0-.314-.255-.568-.568-.568" mask="url(#x960thkyzb)"/>
                        </g>
                        <path fill="#300771" d="M8.524 1.42c-.313 0-.568.255-.568.569v1.989H5.967c-.314 0-.568.254-.568.568 0 .314.254.569.568.569h1.99v1.991c0 .314.254.568.567.568.314 0 .569-.254.569-.568V1.989c0-.314-.255-.568-.569-.568M6.82 0H2.273c-.314 0-.568.254-.568.568 0 .314.254.569.568.569H6.82c.313 0 .568-.255.568-.569C7.388.254 7.133 0 6.82 0M6.82 7.934H2.273c-.314 0-.568.254-.568.568 0 .314.254.568.568.568H6.82c.313 0 .568-.254.568-.568 0-.314-.255-.568-.568-.568" transform="translate(-130 -4749) translate(20 4539) translate(110 210) translate(0 3.2)"/>
                        <path fill="#000" d="M12.976 2.639L12.976 3.88 16.102 3.88 16.102 5.085 12.976 5.085 12.976 6.453 16.428 6.453 16.428 7.658 11.636 7.658 11.636 1.434 16.428 1.434 16.428 2.639zM24.707 4.677v2.99H23.44V4.904c0-.544-.344-.924-.833-.924-.526 0-.906.353-.906.851v2.836H20.43V4.904c0-.544-.344-.924-.824-.924-.534 0-.906.353-.906.851v2.827H17.38V2.974H18.7v.616c.227-.444.689-.724 1.269-.724.643 0 1.195.326 1.485.851.245-.516.824-.851 1.522-.851.978 0 1.73.751 1.73 1.811M29.58 5.311c0-.779-.516-1.331-1.25-1.331-.643 0-1.114.47-1.186 1.15v.363c.072.688.543 1.16 1.186 1.16.734 0 1.25-.554 1.25-1.342m1.287 0c0 1.44-.906 2.455-2.156 2.455-.652 0-1.196-.28-1.567-.77v2.22H25.82V2.974h1.323v.652c.371-.48.915-.76 1.567-.76 1.25 0 2.156 1.014 2.156 2.445M35.379 5.17c0-.761-.618-1.398-1.35-1.398-.74 0-1.359.637-1.359 1.397s.618 1.407 1.36 1.407c.731 0 1.349-.647 1.349-1.407m-4.04 0c0-1.397 1.227-2.566 2.69-2.566 1.455 0 2.671 1.169 2.671 2.566 0 1.397-1.216 2.576-2.67 2.576-1.464 0-2.69-1.179-2.69-2.576" transform="translate(-130 -4749) translate(20 4539) translate(110 210) translate(0 3.2)"/>
                    </g>
                </g>
            </g>
        </g>
    </g>
</svg>
