<svg xmlns="http://www.w3.org/2000/svg" width="19" height="14" viewBox="0 0 19 14">
    <g fill="none" fill-rule="evenodd">
        <g fill="#979797">
            <g>
                <path d="M18.153 1.559c-.487.13-1.031.382-1.632.755-.6.374-1.161.812-1.68 1.316-.52.503-.943 1.047-1.268 1.632-.324.584-.454 1.169-.39 1.754.066.223.244.357.537.385.288.037.568.053.828.053.812 0 1.514.268 2.12.8.6.54.896 1.295.896 2.27 0 .941-.332 1.753-.994 2.436-.666.682-1.421 1.023-2.266 1.023-1.303 0-2.281-.471-2.947-1.413-.666-.946-.999-2.095-.999-3.463 0-1.068.22-2.1.658-3.09.438-.99 1.015-1.892 1.73-2.704.714-.812 1.542-1.51 2.484-2.095.942-.589 1.916-.99 2.923-1.218v1.559zM7.791 1.559c-.483.13-1.027.382-1.628.755-.6.374-1.161.812-1.68 1.316-.52.503-.943 1.047-1.272 1.632-.324.584-.45 1.169-.385 1.754.06.223.243.357.536.385.292.037.568.053.828.053.812 0 1.518.268 2.12.8.6.54.9 1.295.9 2.27 0 .941-.332 1.753-.998 2.436-.666.682-1.421 1.023-2.266 1.023-1.299 0-2.281-.471-2.947-1.413C.333 11.624 0 10.475 0 9.107c0-1.068.22-2.1.658-3.09.438-.99 1.015-1.892 1.73-2.704.714-.812 1.542-1.51 2.484-2.095C5.814.629 6.784.228 7.792 0v1.559z" transform="translate(-216 -7520) translate(216 7520)"/>
            </g>
        </g>
    </g>
</svg>
