<svg xmlns="http://www.w3.org/2000/svg" width="102" height="101" viewBox="0 0 102 101">
    <g fill="none" fill-rule="evenodd">
        <g fill="#FFF">
            <g>
                <path d="M34.612 44.053H12.58V22.027h.007c0-3.476-2.817-6.293-6.294-6.293C2.817 15.734 0 18.55 0 22.027v56.666c0 3.474 2.817 6.292 6.293 6.292 3.477 0 6.294-2.818 6.294-6.292h-.007V56.639h22.032c3.477 0 6.295-2.817 6.295-6.293s-2.818-6.293-6.294-6.293M94.4 15.733c-3.476 0-6.293 2.817-6.293 6.294v22.025H66.079c-3.475 0-6.293 2.819-6.293 6.294 0 3.476 2.818 6.293 6.293 6.293h22.028v22.053c0 3.475 2.817 6.294 6.293 6.294s6.293-2.819 6.293-6.294V22.027c0-3.477-2.817-6.294-6.293-6.294M75.52 0H25.172c-3.475 0-6.292 2.817-6.292 6.293 0 3.477 2.817 6.294 6.292 6.294h50.346c3.477 0 6.294-2.817 6.294-6.294C81.813 2.817 78.996 0 75.519 0M75.52 87.86H25.172c-3.475 0-6.292 2.817-6.292 6.293s2.817 6.293 6.292 6.293h50.346c3.477 0 6.294-2.817 6.294-6.293s-2.817-6.293-6.294-6.293" transform="translate(-670 -9292) translate(670.48 9292)"/>
            </g>
        </g>
    </g>
</svg>
