<svg xmlns="http://www.w3.org/2000/svg" viewBox="0 0 93.25 18.07"><defs><style>.cls-1{fill:#05152c;}.cls-2{fill:#2972b9;}</style></defs><g id="레이어_2" data-name="레이어 2"><g id="레이어_1-2" data-name="레이어 1"><path class="cls-1" d="M41.9,17.17H38.5V8.5l-3.86,6.33h-.38L30.41,8.5v8.67H27.05V2.27h3.41l4,6.62,4-6.62h3.4Z"/><path class="cls-1" d="M55.34,6.52V17.17H52.15v-1A4,4,0,0,1,49,17.47a5.36,5.36,0,0,1-5.1-5.6v0A5.34,5.34,0,0,1,49,6.23h0a4,4,0,0,1,3.17,1.3v-1Zm-3.19,5.33a2.54,2.54,0,0,0-5.07-.32,1.71,1.71,0,0,0,0,.32,2.54,2.54,0,0,0,5.07.32Z"/><path class="cls-1" d="M64.05,6.31V9.93c-1.32-.21-3.2.32-3.2,2.43v4.81H57.67V6.52h3.19v1.9A3.2,3.2,0,0,1,64.05,6.31Z"/><path class="cls-1" d="M70.89,14.62a2.8,2.8,0,0,0,2-.81l2.56,1.47a5.45,5.45,0,0,1-4.65,2.19c-3.64,0-5.89-2.45-5.89-5.62A5.46,5.46,0,0,1,70.2,6.23h.37a5.37,5.37,0,0,1,5.48,5.25v.37a6,6,0,0,1-.13,1.27H68.33A2.43,2.43,0,0,0,70.89,14.62Zm2-3.88a2.41,2.41,0,0,0-3-1.57,2.37,2.37,0,0,0-1.57,1.57Z"/><path class="cls-1" d="M83.18,14.62a2.8,2.8,0,0,0,2-.81l2.56,1.47a5.45,5.45,0,0,1-4.65,2.19c-3.64,0-5.89-2.45-5.89-5.62a5.46,5.46,0,0,1,5.29-5.62h.37a5.36,5.36,0,0,1,5.41,5.32v.3a6,6,0,0,1-.13,1.27H80.62A2.43,2.43,0,0,0,83.18,14.62Zm2-3.88a2.41,2.41,0,0,0-3-1.57,2.37,2.37,0,0,0-1.57,1.57Z"/><path class="cls-1" d="M90.05,1.63h3.2V17.17h-3.2Z"/><path class="cls-2" d="M20.7,9.63A10.4,10.4,0,0,0,11.05,0H9.72A10.33,10.33,0,0,0,0,10.93a10.22,10.22,0,0,0,1,3.91,5.76,5.76,0,0,0,7.7,2.65l.12-.06a2.44,2.44,0,0,0,1.28-2.32,3.14,3.14,0,0,0-3.33-2.94,2.9,2.9,0,0,0-.59.09l-2.18.58V13a.66.66,0,1,1-.66-.66h0a.66.66,0,0,1,.62.44l2.18-.86A3.16,3.16,0,0,0,7.92,7.8a2.94,2.94,0,0,0-.27-.53L6.42,5.33a.66.66,0,0,1-.91-.23.66.66,0,0,1,1.13-.68.83.83,0,0,1,.1.34.66.66,0,0,1-.24.51L8,7a3.14,3.14,0,0,0,4.43.41A3.25,3.25,0,0,0,12.81,7l1.47-1.77a.63.63,0,0,1-.23-.47.66.66,0,0,1,1.32,0h0a.66.66,0,0,1-.64.66h0a.63.63,0,0,1-.33-.09L13.13,7.27a3.15,3.15,0,0,0,1,4.35,2.73,2.73,0,0,0,.54.27l2.17.86a.66.66,0,1,1,.62.89.67.67,0,0,1-.66-.67.29.29,0,0,1,0-.13l-2.26-.58a3.15,3.15,0,0,0-3.84,2.26,3,3,0,0,0-.09.59,2.41,2.41,0,0,0,1.29,2.32A5.76,5.76,0,0,0,19.62,15l.06-.12A10.52,10.52,0,0,0,20.7,9.63Z"/></g></g></svg>